<?xml version="1.0" standalone="no"?>
<!DOCTYPE svg PUBLIC "-//W3C//DTD SVG 20010904//EN"
 "http://www.w3.org/TR/2001/REC-SVG-20010904/DTD/svg10.dtd">
<svg version="1.0" xmlns="http://www.w3.org/2000/svg"
 width="919.000000pt" height="919.000000pt" viewBox="0 0 919.000000 919.000000"
 preserveAspectRatio="xMidYMid meet">
<metadata>
Created by potrace 1.14, written by Peter Selinger 2001-2017
</metadata>
<g transform="translate(0.000000,919.000000) scale(0.100000,-0.100000)"
fill="#000000" stroke="none">
<path d="M4349 9186 c-2 -2 -47 -6 -99 -10 -140 -9 -390 -41 -480 -61 -14 -3
-43 -8 -65 -11 -76 -12 -421 -102 -545 -144 -167 -56 -375 -139 -504 -200 -58
-28 -107 -49 -109 -48 -2 2 -10 -2 -18 -9 -8 -6 -54 -32 -104 -58 -114 -60
-261 -149 -395 -238 -100 -67 -313 -225 -355 -264 -11 -10 -33 -28 -48 -40
-127 -99 -427 -402 -567 -573 -25 -30 -47 -57 -51 -60 -41 -35 -340 -473 -382
-560 -4 -8 -23 -42 -42 -75 -20 -33 -59 -107 -88 -165 -28 -58 -55 -107 -58
-110 -4 -3 -10 -16 -14 -30 -4 -14 -21 -54 -37 -90 -40 -88 -42 -93 -81 -195
-35 -92 -105 -292 -113 -323 -2 -9 -24 -93 -49 -186 -24 -94 -46 -181 -49
-195 -25 -144 -57 -346 -62 -386 -3 -27 -7 -63 -9 -80 -26 -188 -26 -838 0
-959 2 -12 7 -46 10 -76 17 -171 55 -371 115 -605 35 -134 106 -367 129 -420
5 -11 30 -74 56 -140 62 -157 174 -390 259 -540 56 -98 235 -379 268 -420 4
-5 40 -53 80 -105 157 -209 385 -457 569 -621 107 -95 247 -211 334 -276 72
-53 121 -89 136 -98 9 -5 54 -35 100 -65 46 -30 91 -59 100 -65 496 -293 947
-475 1439 -580 41 -9 84 -18 95 -21 11 -2 38 -7 59 -9 21 -3 42 -7 45 -9 3 -2
33 -7 66 -11 32 -3 62 -8 65 -10 3 -1 34 -6 70 -9 36 -4 79 -9 95 -11 103 -13
252 -19 480 -19 255 -1 432 8 559 28 17 3 54 8 81 11 330 40 854 186 1172 327
26 12 48 20 48 19 0 -6 327 162 436 224 205 118 474 303 583 400 6 6 33 28 61
50 27 22 57 47 66 55 8 8 47 43 86 77 119 106 281 272 383 393 30 36 58 67 61
70 6 5 171 220 202 262 292 409 539 919 676 1398 26 94 78 296 86 339 1 9 6
36 11 61 4 25 8 47 9 50 1 3 5 30 10 60 5 30 9 57 10 60 4 17 19 131 29 210
14 117 21 277 20 510 0 234 -4 330 -19 460 -2 19 -6 60 -9 90 -6 51 -48 304
-61 360 -3 14 -8 39 -11 56 -2 17 -23 98 -45 180 -21 82 -41 156 -43 164 -13
49 -85 255 -133 375 -86 218 -270 582 -377 745 -13 19 -45 69 -72 110 -27 41
-51 77 -54 80 -3 3 -34 46 -70 95 -35 50 -67 92 -70 95 -3 3 -35 41 -70 85
-155 191 -356 399 -546 562 -27 23 -62 54 -79 68 -72 62 -302 230 -421 308
-482 315 -1033 541 -1599 656 -105 21 -111 22 -240 41 -44 7 -88 14 -98 16
-10 2 -55 6 -100 10 -45 3 -93 8 -107 11 -31 5 -606 14 -611 9z"/>
</g>
</svg>
